<?xml version="1.0" encoding="UTF-8"?>
<svg id="Layer_2" data-name="Layer 2" xmlns="http://www.w3.org/2000/svg" viewBox="0 0 171.75 227.07">
  <defs>
    <style>
      .cls-1 {
        fill: none;
        stroke: #000;
        stroke-linecap: round;
        stroke-miterlimit: 10;
        stroke-width: 4.62px;
      }
    </style>
  </defs>
  <g id="Layer_2-2" data-name="Layer 2">
    <g>
      <g>
        <path class="cls-1" d="m28.37,22.22c.15,9,.36,21.06.51,30.07"/>
        <path d="m23.34,22.56c-.05-2.78,2.17-5.08,4.96-5.13s5.08,2.17,5.13,4.96c.05,2.78-2.17,5.08-4.96,5.13-2.78.05-5.08-2.17-5.13-4.96Z"/>
        <path d="m23.83,52.12c.05,2.78,2.34,5,5.13,4.96s5-2.34,4.96-5.13c-.05-2.78-2.34-5-5.13-4.96s-5,2.34-4.96,5.13Z"/>
      </g>
      <g>
        <path class="cls-1" d="m5.29,64.77c-.08,28.67-.16,57.34-.25,86.01"/>
        <path d="m.24,65.01c0-2.78,2.27-5.04,5.06-5.03,2.78,0,5.04,2.27,5.03,5.06,0,2.78-2.27,5.04-5.06,5.03-2.78,0-5.04-2.27-5.03-5.06Z"/>
        <path d="m0,150.52c0,2.78,2.24,5.05,5.03,5.06s5.05-2.24,5.06-5.03-2.24-5.05-5.03-5.06C2.27,145.48,0,147.73,0,150.52Z"/>
      </g>
      <g>
        <path class="cls-1" d="m45.81,11.17c.34,22.78.68,45.56,1.02,68.34"/>
        <path d="m40.77,11.49c-.04-2.78,2.18-5.08,4.97-5.12,2.78-.04,5.08,2.18,5.12,4.97.04,2.78-2.18,5.08-4.97,5.12-2.78.04-5.08-2.18-5.12-4.97Z"/>
        <path d="m41.78,79.33c.04,2.78,2.33,5.01,5.12,4.97,2.78-.04,5.01-2.33,4.97-5.12-.04-2.78-2.33-5.01-5.12-4.97-2.78.04-5.01,2.33-4.97,5.12Z"/>
      </g>
      <g>
        <path class="cls-1" d="m65.59,8.91c.17,10.19.33,20.38.5,30.56"/>
        <path d="m60.55,9.25c-.05-2.78,2.18-5.08,4.96-5.12,2.78-.05,5.08,2.18,5.12,4.96.05,2.78-2.18,5.08-4.96,5.12-2.78.05-5.08-2.18-5.12-4.96Z"/>
        <path d="m61.04,39.31c.05,2.78,2.34,5.01,5.12,4.96,2.78-.05,5.01-2.34,4.96-5.12-.05-2.78-2.34-5.01-5.12-4.96-2.78.05-5.01,2.34-4.96,5.12Z"/>
      </g>
      <g>
        <path class="cls-1" d="m86.45,4.79c.13,26.8.5,53.59.77,80.39"/>
        <path d="m81.43,5.09C81.4,2.31,83.64.03,86.43,0s5.06,2.21,5.09,5c.03,2.78-2.21,5.06-5,5.09-2.78.03-5.06-2.21-5.09-4.99Z"/>
        <path d="m82.18,84.97c.03,2.78,2.31,5.02,5.09,5,2.78-.03,5.02-2.31,4.99-5.09-.03-2.78-2.31-5.02-5.09-4.99-2.78.03-5.02,2.3-5,5.09Z"/>
      </g>
      <g>
        <path class="cls-1" d="m108.19,8.91c-.74,33.04-.12,65.14.09,98.64"/>
        <path d="m103.23,9.13c.02-2.78,2.3-5.02,5.08-5,2.78.02,5.02,2.3,5,5.08-.02,2.78-2.3,5.02-5.08,5s-5.02-2.3-5-5.08Z"/>
        <path d="m103.23,107.34c.02,2.78,2.3,5.02,5.08,5,2.78-.02,5.02-2.3,5-5.08-.02-2.78-2.3-5.02-5.08-5-2.78.02-5.02,2.3-5,5.08Z"/>
      </g>
      <g>
        <path class="cls-1" d="m131.55,19.84c-.7,15.51-.51,31.04-1.05,46.56"/>
        <path d="m126.55,19.89c.11-2.78,2.46-4.95,5.24-4.83,2.78.11,4.95,2.46,4.83,5.24-.11,2.78-2.46,4.95-5.24,4.83s-4.95-2.46-4.83-5.24Z"/>
        <path d="m125.38,66.02c-.07,2.78,2.14,5.09,4.92,5.16,2.78.07,5.09-2.14,5.16-4.92s-2.14-5.09-4.92-5.16c-2.78-.07-5.09,2.14-5.16,4.92Z"/>
      </g>
      <g>
        <path class="cls-1" d="m148.86,37.98c-.03,11.49-.14,23.73-.05,35.4"/>
        <circle cx="148.87" cy="38.24" r="5.04" transform="translate(16.57 116.47) rotate(-45)"/>
        <circle cx="148.87" cy="73.13" r="5.04" transform="translate(-8.11 126.69) rotate(-45)"/>
      </g>
      <g>
        <path class="cls-1" d="m166.66,75.76c-.44,29.17.02,57.99-.97,86.94"/>
        <path d="m161.66,75.98c.02-2.78,2.3-5.03,5.08-5,2.78.02,5.03,2.3,5,5.08-.02,2.78-2.3,5.03-5.08,5-2.78-.02-5.03-2.3-5-5.08Z"/>
        <circle cx="165.65" cy="162.45" r="5.04" transform="translate(-63.55 126.44) rotate(-35.51)"/>
      </g>
      <g>
        <path class="cls-1" d="m129.15,83.68c-.86,30.34-.27,113.7-1.68,118.61-1.86,6.47-3.01,9.38-7.78,19.97"/>
        <path d="m124.18,83.84c.05-2.78,2.35-5,5.14-4.95,2.78.05,5,2.35,4.95,5.14-.05,2.78-2.35,5-5.14,4.95-2.78-.05-5-2.35-4.95-5.14Z"/>
        <path d="m115.13,219.99c-1.12,2.55.04,5.52,2.58,6.65,2.55,1.12,5.52-.04,6.65-2.58,1.12-2.55-.04-5.52-2.58-6.65-2.55-1.12-5.52.04-6.65,2.58Z"/>
      </g>
      <g>
        <path class="cls-1" d="m148.64,96.33c-.64,24.38.3,88.54.17,92.58-.05,1.5-3.97,8.73-7.06,14.57"/>
        <path d="m143.69,96.51c.05-2.78,2.34-5,5.13-4.96,2.78.05,5,2.34,4.96,5.13-.05,2.78-2.34,5-5.13,4.96s-5-2.34-4.96-5.13Z"/>
        <path d="m137.42,200.93c-1.29,2.47-.34,5.51,2.12,6.81,2.47,1.29,5.51.34,6.81-2.12,1.29-2.47.34-5.51-2.12-6.81-2.47-1.29-5.51-.34-6.81,2.12Z"/>
      </g>
      <g>
        <path class="cls-1" d="m108.24,130.6c-.23,20.4-.02,60.1-.17,63.51-.13,2.91-6.44,16.27-10.97,27.17"/>
        <path d="m103.25,130.83c.01-2.78,2.28-5.03,5.07-5.02,2.78.01,5.03,2.28,5.02,5.07-.01,2.78-2.28,5.03-5.07,5.02-2.78-.01-5.03-2.28-5.02-5.07Z"/>
        <path d="m92.64,219.1c-1.09,2.56.11,5.52,2.67,6.61,2.56,1.09,5.52-.11,6.61-2.67,1.09-2.56-.11-5.52-2.67-6.61s-5.52.11-6.61,2.67Z"/>
      </g>
      <g>
        <path class="cls-1" d="m85.97,108.19c0,18.27-.06,40.48-.01,58.89"/>
        <circle cx="85.97" cy="108.44" r="5.04" transform="translate(-51.5 92.55) rotate(-45)"/>
        <path d="m80.92,166.82c0,2.78,2.26,5.04,5.04,5.04s5.04-2.26,5.04-5.04-2.26-5.04-5.04-5.04-5.04,2.26-5.04,5.04Z"/>
      </g>
      <g>
        <path class="cls-1" d="m84.55,186.21c-4.82,11.99-9.63,23.99-14.45,35.98"/>
        <path d="m79.77,184.57c1.04-2.58,3.97-3.84,6.56-2.8s3.84,3.97,2.8,6.56c-1.04,2.58-3.97,3.84-6.56,2.8-2.58-1.04-3.84-3.97-2.8-6.56Z"/>
        <circle cx="70.2" cy="221.96" r="5.04" transform="translate(-141.98 126.19) rotate(-48.16)"/>
      </g>
      <g>
        <path class="cls-1" d="m66.01,60.47c.07,29.98.68,104.22.37,112.61-.18,5.02-5.55,18.42-13.34,38.06"/>
        <path d="m60.98,60.75c-.01-2.78,2.23-5.05,5.02-5.07,2.78-.01,5.05,2.23,5.07,5.02.01,2.78-2.23,5.05-5.02,5.07-2.78.01-5.05-2.23-5.07-5.02Z"/>
        <path d="m48.41,209.06c-1.01,2.59.27,5.52,2.86,6.53,2.59,1.01,5.52-.27,6.53-2.86,1.01-2.59-.27-5.52-2.86-6.53-2.59-1.01-5.52.27-6.53,2.86Z"/>
      </g>
      <g>
        <path class="cls-1" d="m28.7,70.81c.32,22.51,1.76,74.28.66,80.15-.62,3.31-4.31,14.86-9.01,30.84"/>
        <path d="m23.69,71.16c-.05-2.78,2.17-5.08,4.95-5.13,2.78-.05,5.08,2.17,5.13,4.95s-2.17,5.08-4.95,5.13c-2.78.05-5.08-2.17-5.13-4.95Z"/>
        <path d="m15.61,180.13c-.79,2.67.72,5.48,3.39,6.27,2.67.79,5.48-.72,6.27-3.39.79-2.67-.72-5.48-3.39-6.27-2.67-.79-5.48.72-6.27,3.39Z"/>
      </g>
      <g>
        <path class="cls-1" d="m47.7,105.58c.03,19.66-.46,51.5-1.55,57.33-.62,3.32-6.26,17.37-11.3,33.8"/>
        <path d="m42.6,105.79c.02-2.78,2.3-5.03,5.08-5,2.78.02,5.02,2.3,5,5.08-.02,2.78-2.3,5.02-5.08,5-2.78-.02-5.02-2.3-5-5.08Z"/>
        <path d="m30.17,194.99c-.83,2.66.65,5.49,3.31,6.32,2.66.83,5.49-.65,6.32-3.31.83-2.66-.65-5.49-3.31-6.32-2.66-.83-5.49.65-6.32,3.31Z"/>
      </g>
    </g>
  </g>
</svg>