<?xml version="1.0" encoding="UTF-8"?>
<svg id="Layer_2" data-name="Layer 2" xmlns="http://www.w3.org/2000/svg" viewBox="0 0 308.64 105.23">
  <g id="Layer_10" data-name="Layer 10">
    <g>
      <g>
        <path d="m176.74,75.86c.05-.44.15-.81.29-1.1.14-.29.33-.54.55-.74s.51-.36.86-.48c.35-.12.78-.18,1.27-.18.44,0,.83.05,1.18.15s.66.25.93.44c.27.2.51.45.71.76.2.31.38.68.53,1.1l7.93,20.91c.22.59.42,1.15.6,1.67.18.52.33.98.47,1.38.15.47.29.89.41,1.27h.1c.12-.38.25-.8.41-1.27.13-.39.29-.85.46-1.38.17-.52.37-1.08.61-1.67l7.93-20.87c.17-.44.35-.81.55-1.12.19-.31.42-.57.69-.77.26-.21.56-.36.89-.46.33-.1.72-.15,1.16-.15s.82.05,1.13.15.59.25.83.47c.25.23.44.5.57.81s.21.66.24,1.06l3.08,26.71c.03.21.06.4.08.57.02.17.03.32.03.46,0,.21-.05.41-.15.59s-.25.34-.43.47c-.19.13-.4.23-.65.3-.25.07-.5.1-.78.1-.29,0-.56-.04-.81-.11-.25-.08-.47-.19-.64-.34-.19-.17-.31-.39-.37-.66s-.11-.65-.17-1.14l-2.07-20.39c-.07-.64-.12-1.25-.14-1.83-.03-.58-.05-1.1-.06-1.56-.02-.52-.03-1.01-.03-1.48h-.1l-9.6,25.3c-.14.38-.28.69-.44.94s-.33.46-.52.62c-.24.21-.5.36-.8.44-.3.08-.64.12-1.03.12s-.76-.04-1.05-.12c-.3-.08-.56-.23-.8-.44-.19-.17-.36-.38-.52-.62s-.31-.56-.44-.94l-9.6-25.3h-.1c-.02.47-.04.96-.08,1.48-.03.44-.07.95-.1,1.52-.03.58-.08,1.18-.15,1.82l-2.12,20.44c-.05.49-.11.86-.18,1.14s-.19.49-.38.66c-.17.15-.37.27-.6.34-.23.08-.49.11-.78.11-.25,0-.5-.03-.74-.1s-.44-.17-.62-.3c-.18-.13-.32-.28-.42-.45s-.15-.38-.15-.6c0-.14,0-.29.03-.46.02-.17.04-.37.08-.61l3.07-26.64Z"/>
        <path d="m221.24,93.52v.23c0,1.35.21,2.56.63,3.62.42,1.06,1.02,1.97,1.79,2.71.77.74,1.69,1.31,2.77,1.7,1.08.39,2.26.58,3.54.58,1.02,0,1.87-.06,2.57-.19.69-.13,1.29-.26,1.78-.41.49-.14.91-.28,1.25-.41s.65-.19.94-.19c.2,0,.38.03.53.09s.28.14.39.24.2.22.25.36c.06.14.09.29.09.44,0,.21-.05.41-.14.58-.09.17-.24.35-.44.53-.2.18-.53.37-.97.58s-.99.4-1.65.58c-.66.18-1.43.33-2.3.46-.87.13-1.83.19-2.88.19-1.8,0-3.43-.26-4.9-.77-1.47-.52-2.73-1.25-3.77-2.22-1.04-.96-1.85-2.12-2.43-3.49-.58-1.36-.86-2.89-.86-4.59,0-2.01.3-3.81.89-5.38.59-1.57,1.41-2.88,2.45-3.94,1.04-1.06,2.27-1.87,3.7-2.42s2.96-.83,4.62-.83c1.42,0,2.73.22,3.91.66s2.21,1.08,3.07,1.91c.86.83,1.54,1.85,2.02,3.05.48,1.2.72,2.55.72,4.07,0,.74-.19,1.3-.58,1.68s-.99.57-1.8.57h-15.19Zm14-2.57c-.24-2.26-.92-3.92-2.05-5-1.13-1.08-2.66-1.61-4.61-1.61-.83,0-1.63.14-2.39.41-.76.27-1.46.68-2.08,1.23-.63.54-1.17,1.23-1.63,2.06-.46.83-.8,1.8-1.02,2.92h13.77Z"/>
        <path d="m262.53,72.63c0-.48.16-.86.47-1.12.31-.26.78-.4,1.41-.4s1.1.13,1.41.4c.31.27.47.64.47,1.12v30.96c0,.44-.14.78-.42,1.03-.28.25-.67.38-1.16.38-.25,0-.48-.03-.67-.1s-.36-.17-.5-.31c-.14-.14-.25-.31-.33-.52-.08-.21-.15-.46-.2-.75l-.25-1.73h-.08c-.53.68-1.18,1.29-1.96,1.82-.66.46-1.5.87-2.52,1.25-1.02.38-2.21.57-3.58.57-1.54,0-2.94-.24-4.21-.7-1.26-.47-2.35-1.17-3.25-2.1-.91-.93-1.61-2.1-2.11-3.5-.5-1.4-.75-3.04-.75-4.92s.31-3.72.93-5.26c.62-1.54,1.5-2.84,2.64-3.9,1.14-1.06,2.54-1.87,4.18-2.42,1.64-.55,3.49-.83,5.54-.83.71,0,1.36.03,1.96.1s1.11.14,1.55.22c.52.09,1,.19,1.42.3l.08-.02c-.05-.97-.08-2.01-.08-3.11v-6.43Zm0,12.8c-.39-.18-.86-.35-1.4-.5-.46-.12-1.03-.24-1.7-.35-.68-.11-1.47-.17-2.36-.17-1.32,0-2.53.2-3.62.6-1.09.4-2.03.99-2.81,1.76-.78.77-1.38,1.73-1.82,2.87s-.65,2.46-.65,3.94c0,1.57.17,2.91.51,4.02.34,1.11.82,2.01,1.45,2.72s1.39,1.23,2.29,1.56c.9.33,1.9.49,3,.49.59,0,1.15-.06,1.66-.17s1-.27,1.44-.46.85-.42,1.22-.67c.37-.25.71-.5,1.02-.76.69-.6,1.29-1.29,1.78-2.06v-12.82Z"/>
        <path d="m274.75,74.84c0-.36.07-.7.22-1.01.14-.31.34-.58.58-.8.25-.22.54-.39.89-.52.35-.13.72-.19,1.13-.19.37,0,.73.06,1.07.19.34.13.63.3.86.51s.43.47.57.77c.14.3.22.62.22.96,0,.36-.07.7-.22,1.01-.14.31-.34.58-.58.79-.25.22-.54.39-.89.52-.35.13-.72.19-1.13.19s-.75-.06-1.08-.19-.61-.3-.85-.51-.43-.47-.57-.76c-.14-.29-.22-.62-.22-.97Zm.89,8.55c0-.48.16-.86.47-1.12.31-.26.78-.4,1.41-.4s1.1.13,1.41.4c.31.27.47.64.47,1.12v20.05c0,.49-.16.86-.47,1.13-.31.26-.78.4-1.41.4s-1.1-.13-1.41-.4c-.31-.27-.47-.64-.47-1.13v-20.05Z"/>
        <path d="m302.65,90.29c0-1.03-.12-1.92-.36-2.66s-.61-1.34-1.12-1.8c-.51-.46-1.16-.8-1.97-1.01-.8-.21-1.77-.32-2.91-.32-1,0-1.86.07-2.59.22-.73.14-1.36.3-1.88.48-.53.17-.97.33-1.32.48-.36.14-.67.22-.94.22-.42,0-.76-.11-1-.34-.25-.23-.37-.54-.37-.93,0-.2.04-.38.11-.53s.2-.31.37-.47c.22-.19.59-.4,1.11-.63.52-.22,1.15-.44,1.89-.64.75-.2,1.58-.37,2.5-.51s1.89-.2,2.91-.2c3.12,0,5.45.67,7,2,1.55,1.33,2.33,3.26,2.33,5.77v8.8c0,.99.03,1.79.08,2.41s.11,1.12.18,1.51.13.69.18.91.08.43.08.62-.04.38-.11.55-.19.31-.33.42c-.14.11-.31.21-.51.27-.2.07-.41.1-.65.1-.34,0-.64-.07-.9-.2-.26-.14-.49-.33-.67-.58s-.34-.56-.47-.93-.23-.78-.32-1.24h-.08c-.56.59-1.22,1.12-1.98,1.59-.64.39-1.44.76-2.4,1.09s-2.05.5-3.29.5c-1.32,0-2.5-.16-3.54-.48-1.04-.32-1.92-.76-2.63-1.33-.71-.57-1.25-1.24-1.63-2.01-.37-.77-.56-1.61-.56-2.5,0-.98.23-1.85.7-2.6s1.14-1.38,2.02-1.89,1.95-.89,3.21-1.15,2.7-.39,4.31-.39c.88,0,1.67.03,2.36.08.69.05,1.28.12,1.75.19.56.08,1.04.17,1.45.27v-3.14Zm0,5.74c-.42-.11-.91-.2-1.45-.27-.46-.08-1-.14-1.62-.21-.62-.06-1.3-.09-2.05-.09-2.33,0-4.04.28-5.16.83-1.11.55-1.67,1.37-1.67,2.44,0,.53.11,1.02.34,1.47.23.45.56.84.99,1.18.43.34.97.61,1.62.79.65.19,1.38.28,2.22.28,1.07,0,2.02-.17,2.85-.52s1.54-.73,2.14-1.16c.68-.5,1.27-1.06,1.78-1.68v-3.07Z"/>
      </g>
      <g>
        <path d="m4.75,11.87c.14-1.32.39-2.45.76-3.37.37-.92.87-1.7,1.51-2.34.66-.66,1.55-1.19,2.67-1.57,1.12-.39,2.49-.58,4.11-.58,1.38,0,2.56.15,3.55.46.99.3,1.85.76,2.56,1.37s1.32,1.34,1.8,2.21c.48.87.89,1.85,1.22,2.96l9.26,30.69c.3,1.02.58,2.01.83,2.96s.46,1.79.62,2.5c.19.86.37,1.65.54,2.4h.17c.17-.75.34-1.54.54-2.4.17-.72.37-1.54.6-2.48s.5-1.92.81-2.94l9.31-30.69c.33-1.13.74-2.13,1.22-3,.48-.87,1.08-1.61,1.8-2.21.72-.61,1.57-1.06,2.55-1.37.98-.3,2.16-.46,3.54-.46,1.57,0,2.9.19,3.97.56,1.08.37,1.95.89,2.61,1.55.66.66,1.17,1.46,1.53,2.38.36.92.61,2.05.75,3.37l4.56,42.89c.05.55.1,1,.12,1.34s.04.67.04.97c0,.69-.16,1.32-.48,1.88-.32.57-.74,1.05-1.28,1.47-.54.41-1.17.73-1.9.95-.73.22-1.52.33-2.38.33s-1.62-.13-2.38-.39c-.76-.26-1.37-.63-1.84-1.1-.55-.55-.9-1.21-1.05-1.96-.15-.76-.27-1.62-.35-2.58l-2.75-31.14c-.11-1.13-.18-2.21-.21-3.25s-.04-1.95-.04-2.75c0-.94.01-1.82.04-2.65h-.17l-11.58,38.55c-.39,1.24-.79,2.32-1.2,3.23-.41.91-.9,1.64-1.45,2.19-.63.63-1.38,1.08-2.25,1.34-.87.26-1.9.39-3.08.39s-2.26-.13-3.14-.39c-.88-.26-1.64-.71-2.28-1.34-.55-.55-1.03-1.29-1.43-2.21s-.79-1.99-1.18-3.21L14.29,15.84h-.17c0,.83-.01,1.7-.04,2.61-.03.8-.07,1.72-.12,2.75s-.12,2.13-.21,3.29l-2.55,31.19c-.08.97-.2,1.83-.35,2.58-.15.76-.52,1.43-1.1,2.01-.47.47-1.05.83-1.76,1.08s-1.46.37-2.25.37-1.51-.1-2.21-.31-1.32-.5-1.84-.87c-.52-.37-.94-.83-1.24-1.38s-.45-1.17-.45-1.86c0-.33.02-.68.06-1.03s.09-.83.14-1.41L4.75,11.87Z"/>
        <path d="m76.35,40.99c0-3.53.51-6.69,1.53-9.49,1.02-2.8,2.49-5.17,4.4-7.11,1.92-1.94,4.24-3.43,6.97-4.45,2.73-1.02,5.8-1.53,9.22-1.53,3.17,0,6.04.5,8.62,1.51,2.58,1.01,4.79,2.43,6.64,4.28s3.27,4.07,4.28,6.68c1.01,2.61,1.51,5.49,1.51,8.67,0,3.53-.51,6.69-1.53,9.49-1.02,2.8-2.48,5.17-4.38,7.11-1.9,1.94-4.22,3.43-6.95,4.45s-5.8,1.53-9.22,1.53c-3.17,0-6.05-.5-8.64-1.51-2.59-1.01-4.81-2.43-6.66-4.28s-3.27-4.07-4.28-6.66c-1.01-2.59-1.51-5.49-1.51-8.69Zm11.46-.83c0,2.21.27,4.14.81,5.79.54,1.65,1.27,3.04,2.19,4.16.92,1.12,2.01,1.96,3.25,2.52,1.24.57,2.58.85,4.01.85s2.72-.28,3.95-.83c1.23-.55,2.3-1.37,3.21-2.46.91-1.09,1.62-2.45,2.13-4.09.51-1.64.76-3.56.76-5.77s-.27-4.09-.81-5.75c-.54-1.66-1.27-3.04-2.19-4.16-.92-1.12-2.01-1.96-3.25-2.52-1.24-.56-2.56-.85-3.97-.85s-2.76.28-3.99.83c-1.23.55-2.3,1.37-3.21,2.46-.91,1.09-1.62,2.46-2.13,4.09-.51,1.64-.76,3.55-.76,5.73Z"/>
        <path d="m155.52,4.96c0-1.57.46-2.79,1.38-3.66s2.34-1.3,4.24-1.3,3.32.43,4.24,1.3,1.39,2.09,1.39,3.66v52.07c0,1.52-.4,2.67-1.2,3.47-.8.8-1.96,1.2-3.47,1.2-.75,0-1.4-.09-1.96-.27-.57-.18-1.05-.44-1.45-.79-.4-.34-.72-.77-.97-1.26-.25-.5-.43-1.06-.54-1.7l-.37-2.07h-.12c-.83,1.21-1.85,2.29-3.06,3.23-1.05.8-2.38,1.54-3.99,2.21s-3.55,1.01-5.81,1.01c-2.59,0-4.95-.43-7.07-1.3-2.12-.87-3.94-2.17-5.46-3.89-1.52-1.72-2.69-3.87-3.52-6.45-.83-2.58-1.24-5.59-1.24-9.04s.52-6.85,1.57-9.7,2.57-5.27,4.57-7.24c2-1.97,4.46-3.47,7.38-4.51,2.92-1.03,6.27-1.55,10.05-1.55.8,0,1.53.04,2.19.1.66.07,1.23.14,1.7.23.55.11,1.06.22,1.53.33l.12-.04c-.08-1.41-.12-2.9-.12-4.47V4.96Zm0,23.41c-.47-.25-1.02-.47-1.66-.66-.55-.17-1.23-.32-2.03-.46-.8-.14-1.72-.21-2.77-.21-1.65,0-3.16.28-4.51.85-1.35.57-2.52,1.41-3.5,2.54-.98,1.13-1.74,2.54-2.27,4.22-.54,1.68-.81,3.65-.81,5.92s.21,4.23.62,5.81,1,2.87,1.76,3.87c.76.99,1.67,1.72,2.73,2.17s2.24.68,3.54.68c.74,0,1.44-.08,2.09-.25.65-.17,1.25-.39,1.8-.68.55-.29,1.05-.61,1.51-.97s.88-.73,1.26-1.12c.88-.88,1.63-1.89,2.23-3.02v-18.7Z"/>
        <path d="m187.53,42.6v.08c.17,1.71.55,3.23,1.16,4.55.61,1.32,1.41,2.44,2.42,3.35,1.01.91,2.21,1.6,3.62,2.07,1.41.47,2.98.7,4.71.7,1.43,0,2.67-.1,3.7-.29,1.03-.19,1.94-.41,2.71-.64.77-.23,1.45-.45,2.05-.64.59-.19,1.15-.29,1.67-.29s.99.1,1.41.29c.41.19.77.45,1.05.76.29.32.51.68.66,1.1.15.41.23.85.23,1.32,0,.69-.11,1.29-.33,1.8-.22.51-.58,1.01-1.08,1.51-.41.41-1.02.85-1.82,1.3s-1.79.87-2.96,1.24c-1.17.37-2.54.68-4.09.93-1.56.25-3.29.37-5.19.37-3.28,0-6.23-.48-8.85-1.43-2.62-.95-4.84-2.32-6.66-4.09-1.82-1.78-3.21-3.93-4.18-6.45-.97-2.52-1.45-5.36-1.45-8.5,0-3.67.52-6.94,1.55-9.82,1.03-2.88,2.47-5.31,4.32-7.3,1.85-1.99,4.06-3.5,6.64-4.55,2.58-1.05,5.41-1.57,8.5-1.57,2.65,0,5.05.41,7.2,1.24,2.15.83,3.98,2.02,5.5,3.58,1.52,1.56,2.69,3.45,3.52,5.69s1.24,4.77,1.24,7.61c0,2.07-.48,3.6-1.43,4.59-.95.99-2.31,1.49-4.07,1.49h-21.76Zm16.79-7.2c-.36-3.09-1.19-5.36-2.5-6.83-1.31-1.46-3.16-2.19-5.56-2.19-.99,0-1.94.17-2.85.52s-1.74.88-2.5,1.61-1.41,1.66-1.96,2.79c-.55,1.13-.98,2.5-1.28,4.09h16.67Z"/>
        <path d="m221.16,27.38c-.36-.96-.59-1.67-.68-2.13-.1-.46-.14-.88-.14-1.26,0-.83.19-1.56.58-2.19.39-.63.88-1.17,1.47-1.61.59-.44,1.26-.78,2.01-1.01.75-.23,1.47-.35,2.19-.35.8,0,1.48.12,2.05.35s1.04.54,1.43.93c.36.36.65.83.89,1.43s.52,1.37.85,2.34l7.26,21.14c.27.8.51,1.55.72,2.25.21.7.38,1.33.52,1.88.17.63.3,1.21.41,1.74h.17c.14-.55.29-1.14.46-1.78.14-.55.31-1.17.52-1.86s.45-1.43.73-2.23l7.13-21.34c.28-.83.52-1.53.74-2.11s.52-1.06.91-1.45.86-.7,1.43-.93c.56-.23,1.23-.35,2.01-.35.69,0,1.39.1,2.09.31.7.21,1.34.52,1.9.93.57.41,1.03.92,1.39,1.51.36.59.54,1.26.54,2.01,0,.39-.05.79-.15,1.2-.1.41-.3,1.05-.6,1.9l-10.02,27.01c-.55,1.46-1.06,2.65-1.53,3.58s-.98,1.66-1.53,2.21c-.33.33-.7.63-1.1.89-.4.26-.86.48-1.39.66-.52.18-1.11.32-1.76.41-.65.1-1.39.14-2.21.14s-1.52-.05-2.17-.14c-.65-.1-1.23-.23-1.76-.39-.52-.17-.99-.38-1.39-.64-.4-.26-.77-.56-1.1-.89-.55-.55-1.07-1.3-1.55-2.25-.48-.95-.99-2.13-1.51-3.54l-9.79-26.35Z"/>
        <path d="m265.46,40.99c0-3.53.51-6.69,1.53-9.49,1.02-2.8,2.49-5.17,4.4-7.11,1.92-1.94,4.24-3.43,6.97-4.45,2.73-1.02,5.8-1.53,9.22-1.53,3.17,0,6.04.5,8.62,1.51,2.58,1.01,4.79,2.43,6.64,4.28s3.27,4.07,4.28,6.68c1.01,2.61,1.51,5.49,1.51,8.67,0,3.53-.51,6.69-1.53,9.49-1.02,2.8-2.48,5.17-4.38,7.11-1.9,1.94-4.22,3.43-6.95,4.45s-5.8,1.53-9.22,1.53c-3.17,0-6.05-.5-8.64-1.51-2.59-1.01-4.81-2.43-6.66-4.28s-3.27-4.07-4.28-6.66c-1.01-2.59-1.51-5.49-1.51-8.69Zm11.46-.83c0,2.21.27,4.14.81,5.79.54,1.65,1.27,3.04,2.19,4.16.92,1.12,2.01,1.96,3.25,2.52,1.24.57,2.58.85,4.01.85s2.72-.28,3.95-.83c1.23-.55,2.3-1.37,3.21-2.46.91-1.09,1.62-2.45,2.13-4.09.51-1.64.76-3.56.76-5.77s-.27-4.09-.81-5.75c-.54-1.66-1.27-3.04-2.19-4.16-.92-1.12-2.01-1.96-3.25-2.52-1.24-.56-2.56-.85-3.97-.85s-2.76.28-3.99.83c-1.23.55-2.3,1.37-3.21,2.46-.91,1.09-1.62,2.46-2.13,4.09-.51,1.64-.76,3.55-.76,5.73Z"/>
      </g>
    </g>
  </g>
</svg>